<svg width="22" height="21" viewBox="0 0 22 21" fill="none" xmlns="http://www.w3.org/2000/svg">
<path d="M6.31975 14.1271C7.90575 10.8991 8.69975 9.28513 9.83975 8.90013C10.4301 8.70122 11.0694 8.70122 11.6598 8.90013C12.7998 9.28513 13.5938 10.8991 15.1798 14.1271L16.0578 15.9171C16.4678 16.7501 16.6718 17.1671 16.7208 17.4511C16.9218 18.6301 16.0508 19.7161 14.8748 19.7511C14.5918 19.7591 14.1498 19.6381 13.2648 19.3951C12.9308 19.2985 12.594 19.2121 12.2548 19.1361C11.2615 18.9355 10.2381 18.9355 9.24475 19.1361C8.99275 19.1871 8.73975 19.2561 8.23475 19.3961C7.34975 19.6381 6.90775 19.7591 6.62475 19.7511C5.44975 19.7161 4.57775 18.6301 4.77875 17.4511C4.82675 17.1671 5.03175 16.7511 5.44175 15.9161L6.31975 14.1271ZM4.89475 4.27813C5.30675 5.90913 6.47075 6.99513 7.49475 6.70413C8.51975 6.41213 9.01675 4.85413 8.60475 3.22413C8.19275 1.59313 7.02875 0.507131 6.00475 0.798131C4.97975 1.09013 4.48275 2.64813 4.89475 4.27813ZM16.6048 4.27813C16.1928 5.90913 15.0288 6.99513 14.0048 6.70413C12.9798 6.41213 12.4828 4.85413 12.8948 3.22413C13.3068 1.59313 14.4708 0.507131 15.4948 0.798131C16.5198 1.09013 17.0168 2.64813 16.6048 4.27813ZM0.951753 11.0481C1.40175 12.2531 2.45975 12.9851 3.31475 12.6831C4.16975 12.3811 4.49775 11.1591 4.04775 9.95313C3.59775 8.74913 2.53975 8.01713 1.68475 8.31913C0.829753 8.62113 0.501753 9.84313 0.951753 11.0491V11.0481ZM20.5478 11.0481C20.0978 12.2531 19.0398 12.9851 18.1848 12.6831C17.3298 12.3811 17.0018 11.1591 17.4518 9.95313C17.9018 8.74913 18.9598 8.01713 19.8148 8.31913C20.6698 8.62113 20.9978 9.84313 20.5478 11.0491V11.0481Z" stroke="#2B3692" stroke-width="1.5"/>
</svg>
