<svg width="20" height="22" viewBox="0 0 20 22" fill="none" xmlns="http://www.w3.org/2000/svg">
<path d="M13.75 0.75V4.75M5.75 0.75V4.75M0.75 8.75H18.75M10.75 2.75H8.75C4.979 2.75 3.093 2.75 1.922 3.922C0.751 5.094 0.75 6.979 0.75 10.75V12.75C0.75 16.521 0.75 18.407 1.922 19.578C3.094 20.749 4.979 20.75 8.75 20.75H10.75C14.521 20.75 16.407 20.75 17.578 19.578C18.749 18.406 18.75 16.521 18.75 12.75V10.75C18.75 6.979 18.75 5.093 17.578 3.922C16.406 2.751 14.521 2.75 10.75 2.75Z" stroke="white" stroke-width="1.5" stroke-linecap="round" stroke-linejoin="round"/>
<path d="M6.75 15.25C6.75 15.25 8.25 15.75 8.75 17.25C8.75 17.25 10.927 13.25 13.75 12.25" stroke="white" stroke-width="1.5" stroke-linecap="round" stroke-linejoin="round"/>
</svg>
