<svg width="15" height="15" viewBox="0 0 15 15" fill="none" xmlns="http://www.w3.org/2000/svg">
<g clip-path="url(#clip0_38_215)">
<path d="M10.2506 12.8125L3.75 1.25M4.74937 12.8125L11.25 1.25M13.75 11.875C13.75 12.3723 13.5525 12.8492 13.2008 13.2008C12.8492 13.5525 12.3723 13.75 11.875 13.75C11.3777 13.75 10.9008 13.5525 10.5492 13.2008C10.1975 12.8492 10 12.3723 10 11.875C10 11.3777 10.1975 10.9008 10.5492 10.5492C10.9008 10.1975 11.3777 10 11.875 10C12.3723 10 12.8492 10.1975 13.2008 10.5492C13.5525 10.9008 13.75 11.3777 13.75 11.875ZM1.25 11.875C1.25 12.3723 1.44754 12.8492 1.79917 13.2008C2.15081 13.5525 2.62772 13.75 3.125 13.75C3.62228 13.75 4.09919 13.5525 4.45083 13.2008C4.80246 12.8492 5 12.3723 5 11.875C5 11.3777 4.80246 10.9008 4.45083 10.5492C4.09919 10.1975 3.62228 10 3.125 10C2.62772 10 2.15081 10.1975 1.79917 10.5492C1.44754 10.9008 1.25 11.3777 1.25 11.875Z" stroke="#4F8FE4" stroke-width="1.5" stroke-linecap="round"/>
</g>
<defs>
<clipPath id="clip0_38_215">
<rect width="15" height="15" fill="white"/>
</clipPath>
</defs>
</svg>
