<svg width="41" height="37" viewBox="0 0 41 37" fill="none" xmlns="http://www.w3.org/2000/svg">
<path d="M30.7164 12.9672C32.1791 12.9672 32.1791 14.264 32.1791 14.264V15.5607C33.6418 15.5607 35.1045 15.5607 36.5672 16.8574L40.9552 20.7476C40.9552 20.7476 40.9552 23.341 38.0299 23.341H33.6418L27.791 19.4509L29.2537 14.264C29.6925 13.071 30.7164 12.9672 30.7164 12.9672ZM16.0896 15.5607C18.0788 15.5347 18.0788 18.1801 16.0896 18.1541C16.0896 18.1541 15.6507 18.1801 15.2704 18.3357C14.8901 18.5172 14.6269 18.595 14.6269 19.4509V20.7476H24.8657L29.2537 23.341C30.3361 23.9635 32.1791 24.923 32.1791 27.2312V33.7148C32.1791 33.7148 33.6418 33.7148 33.6418 35.0115C33.6418 36.3083 32.1791 36.3083 32.1791 36.3083H30.7164C30.7164 36.3083 29.2537 36.3083 28.2591 33.6889L26.3284 28.5279H17.5522V35.0115C17.5522 35.0115 17.5522 36.3083 16.0896 36.3083C14.6269 36.3083 14.6269 35.0115 14.6269 35.0115V30.3433C13.72 30.7583 12.7254 31.1214 11.7015 31.1214V35.0115C11.7015 35.0115 11.7015 36.3083 10.2388 36.3083C8.77612 36.3083 8.77612 35.0115 8.77612 35.0115V29.8246C8.77612 28.5279 10.2388 28.5279 10.2388 28.5279C11.7015 28.5279 11.7015 27.2312 11.7015 24.6377V19.4509C11.7015 17.7132 12.9009 16.4943 13.9833 16.0275C15.0657 15.5347 16.0896 15.5607 16.0896 15.5607ZM20.4776 5.18689V11.6705C20.4776 12.3967 19.834 12.9672 19.0149 12.9672C18.1958 12.9672 17.5522 12.3967 17.5522 11.6705V5.18689H14.6269V11.6705C14.6269 12.3967 13.9833 12.9672 13.1642 12.9672C12.3451 12.9672 11.7015 12.3967 11.7015 11.6705V5.18689H8.77612V11.6705C8.77612 12.3967 8.13254 12.9672 7.31343 12.9672C6.49433 12.9672 5.85075 12.3967 5.85075 11.6705V5.18689H2.92537V11.6705C2.92537 12.3967 2.28179 12.9672 1.46269 12.9672C0.643582 12.9672 0 12.3967 0 11.6705V4.25325C0 3.21587 0.731343 2.2563 1.81373 1.86728C5.26567 0.622427 9.0394 0 13.1642 0C17.289 0 21.0627 0.622427 24.5146 1.86728C25.597 2.2563 26.3284 3.21587 26.3284 4.25325V11.6705C26.3284 12.3967 25.6848 12.9672 24.8657 12.9672C24.0466 12.9672 23.403 12.3967 23.403 11.6705V5.18689H20.4776Z" fill="#4F8FE4"/>
</svg>
