<svg width="30" height="36" viewBox="0 0 30 36" fill="none" xmlns="http://www.w3.org/2000/svg">
<path d="M14.7468 0C10.0462 0 6.23901 3.80721 6.23901 8.50774C6.23901 13.2083 10.0462 17.0155 14.7468 17.0155C19.4473 17.0155 23.2545 13.2083 23.2545 8.50774C23.2545 3.80721 19.4473 0 14.7468 0ZM19.0006 22.1768C18.6178 22.1414 18.2207 22.1201 17.8237 22.1201H11.6627C11.2657 22.1201 10.8757 22.1414 10.4858 22.1768V26.9624C11.6556 27.5013 12.4709 28.6853 12.4709 30.0536C12.4709 31.9324 10.9466 33.4567 9.06783 33.4567C7.18904 33.4567 5.66474 31.9324 5.66474 30.0536C5.66474 28.6782 6.48006 27.4942 7.64988 26.9624V22.822C3.1904 24.4598 0 28.7562 0 33.7899C0 34.8605 0.872043 35.7325 1.9426 35.7325H27.5438C28.6144 35.7325 29.4864 34.8605 29.4864 33.7899C29.4864 28.7562 26.296 24.4668 21.8294 22.8291V25.4807C23.4814 26.062 24.6654 27.6431 24.6654 29.4935V31.7622C24.6654 32.5421 24.0273 33.1802 23.2474 33.1802C22.4675 33.1802 21.8294 32.5421 21.8294 31.7622V29.4935C21.8294 28.7136 21.1914 28.0755 20.4115 28.0755C19.6316 28.0755 18.9935 28.7136 18.9935 29.4935V31.7622C18.9935 32.5421 18.3554 33.1802 17.5756 33.1802C16.7957 33.1802 16.1576 32.5421 16.1576 31.7622V29.4935C16.1576 27.6431 17.3416 26.0691 18.9935 25.4807V22.1768H19.0006Z" fill="#4F8FE4"/>
</svg>
