<svg width="11" height="11" viewBox="0 0 11 11" fill="none" xmlns="http://www.w3.org/2000/svg">
<g clip-path="url(#clip0_717_1033)">
<path d="M5.43622 6.79529C6.18682 6.79529 6.79529 6.18682 6.79529 5.43622C6.79529 4.68563 6.18682 4.07715 5.43622 4.07715C4.68563 4.07715 4.07715 4.68563 4.07715 5.43622C4.07715 6.18682 4.68563 6.79529 5.43622 6.79529Z" fill="black"/>
<path d="M10.5124 5.32066C10.1127 4.28696 9.41897 3.39302 8.51683 2.74932C7.61468 2.10562 6.54369 1.74038 5.43622 1.69873C4.32875 1.74038 3.25776 2.10562 2.35561 2.74932C1.45346 3.39302 0.759707 4.28696 0.360085 5.32066C0.333097 5.39531 0.333097 5.47705 0.360085 5.5517C0.759707 6.58539 1.45346 7.47933 2.35561 8.12303C3.25776 8.76674 4.32875 9.13198 5.43622 9.17363C6.54369 9.13198 7.61468 8.76674 8.51683 8.12303C9.41897 7.47933 10.1127 6.58539 10.5124 5.5517C10.5393 5.47705 10.5393 5.39531 10.5124 5.32066ZM5.43622 7.64467C4.99942 7.64467 4.57243 7.51514 4.20925 7.27247C3.84606 7.0298 3.56299 6.68488 3.39584 6.28133C3.22868 5.87778 3.18495 5.43373 3.27016 5.00532C3.35538 4.57692 3.56572 4.1834 3.87458 3.87454C4.18344 3.56568 4.57696 3.35534 5.00536 3.27012C5.43377 3.18491 5.87782 3.22864 6.28137 3.3958C6.68492 3.56295 7.02984 3.84602 7.27251 4.20921C7.51519 4.57239 7.64471 4.99938 7.64471 5.43618C7.64381 6.02163 7.41084 6.58285 6.99687 6.99683C6.58289 7.4108 6.02167 7.64377 5.43622 7.64467Z" fill="black"/>
</g>
<defs>
<clipPath id="clip0_717_1033">
<rect width="10.8726" height="10.8726" fill="white"/>
</clipPath>
</defs>
</svg>
